<?xml version="1.0" encoding="iso-8859-1"?>
<!-- Generator: Adobe Illustrator 19.0.0, SVG Export Plug-In . SVG Version: 6.00 Build 0)  -->
<svg version="1.1" id="Capa_1" xmlns="http://www.w3.org/2000/svg" xmlns:xlink="http://www.w3.org/1999/xlink" x="0px" y="0px"
	 viewBox="0 0 489.699 489.699" style="enable-background:new 0 0 489.699 489.699;" xml:space="preserve">
<g>
	<g>
		<path d="M477.66,1.644c-4.3-3.1-10.5-1.6-13.2,2.7c-13.2,20.2-43.1,51.3-49.4,57.9c-31.9-17.1-72.3-6.2-93.3,23.7
			c-77.7,111.2-159.7,193.6-270.9,271.3c-30.7,21.4-56,78.1-36.5,110.4s79.7,26,114.7,1.2c124.4-87.1,218-180.7,304.7-305.1
			c21-29.9,17.9-67.6-3.1-90.2c9.3-9.3,36.5-38.5,50.1-59.1C483.46,10.544,482.26,4.744,477.66,1.644z M214.16,257.744
			c1.9-5.4,5.4-10.1,10.1-13.2c4.3-3.1,10.5-1.9,13.6,2.3c3.1,4.2,1.9,10.5-2.3,13.6c-1.6,0.8-2.3,2.3-3.1,3.9
			c-1.6,3.9-6.2,7.7-12.4,5.4C214.86,268.644,212.16,262.844,214.16,257.744z M64.06,442.744c-1.2,4.3-5.1,7.4-9.3,7.4l0,0
			c-5.4,0-9.7-4.3-9.7-9.7c0-5.8,3.9-11.7,9.3-14c5.1-1.9,10.5,0,12.8,5.1C68.76,435.344,67.16,440.444,64.06,442.744z
			 M80.46,386.044c-1.6,3.5-5.6,6.2-10.5,5.8c-5.4-0.8-8.9-5.8-8.2-10.9c1.2-7.4,7.4-13.2,14.8-13.6c5.4-0.4,9.7,3.9,10.1,9.3
			C87.36,380.944,84.66,384.844,80.46,386.044z M119.66,425.244c-10.7,6.9-20.6,1.9-24.1-1.2c-3.9-3.5-4.3-9.7-0.8-13.6
			s9.3-4.3,13.6-0.8c4.3-3.1,10.5-1.9,13.6,2.3C125.16,415.944,123.96,422.144,119.66,425.244z M130.96,382.144
			c-1.2,4.7-6.2,9.3-11.3,7.4l-8.6-1.9c-5.1-1.2-8.6-6.2-7.4-11.7c1.2-5.1,6.2-8.6,11.7-7.4l8.6,1.9
			C128.96,372.044,132.06,377.044,130.96,382.144z M142.56,352.644l-10.9,6.2c-6.4,2.9-11.3-0.4-13.2-3.5
			c-2.7-4.7-1.2-10.5,3.5-13.2l10.9-6.3c4.7-2.7,10.5-1.2,13.2,3.5C148.86,344.044,147.26,349.844,142.56,352.644z M175.26,393.844
			l-10.9,6.6c-6.3,3.4-11.7,0-13.2-3.1c-2.7-4.7-1.2-10.5,3.5-13.2l10.9-6.6c4.7-2.7,10.5-1.2,13.2,3.5
			C181.46,384.844,179.96,391.044,175.26,393.844z M199.76,313.344l-12.8,13.2c-5.7,5.1-12,1.9-14,0c-3.9-3.9-3.9-9.7,0-13.6
			l12.8-12.8c3.9-3.9,9.7-3.9,13.6,0C203.66,303.644,203.66,309.844,199.76,313.344z M240.16,348.344c-4.7,3.1-14.2,6.4-22.9,3.9
			c-5.1-1.2-8.6-6.6-7-11.7c1.2-5.1,6.6-8.6,11.7-7c2.7,0.8,5.4,0,7.8-1.2c4.7-2.7,10.5-1.6,13.2,3.1
			C245.96,339.344,244.46,345.244,240.16,348.344z M250.26,235.244c-4.3-3.5-4.7-9.7-1.2-13.6c4.3-5.1,9.7-8.6,16.3-9.7
			c5.1-1.2,10.5,2.3,11.7,7.4c1.2,5.1-2.3,10.5-7.4,11.7c-1.9,0.4-3.9,1.6-5.4,3.1C262.36,236.344,257.06,239.944,250.26,235.244z
			 M282.96,312.544l-7.4,5.4c-5.9,4.4-11.3,0.4-13.2-1.9c-3.1-4.3-1.9-10.5,2.3-13.6l7.4-5.4c4.3-3.1,10.5-1.9,13.6,2.3
			C288.36,303.244,287.16,309.444,282.96,312.544z M284.86,267.044l-10.9,10.9c-1.9,1.9-8.3,5.1-14,0c-3.8-3.4-3.9-9.7,0-13.6
			l10.9-10.9c3.9-3.9,9.7-3.9,13.6,0C288.76,256.944,288.76,263.244,284.86,267.044z M307.36,188.544c-1.9,2.3-7,5.8-13.6,1.2
			c-4.3-3.5-4.7-9.3-1.6-13.6c3.9-4.7,8.6-8.6,14-11.3c4.7-2.3,10.5-0.4,12.8,4.3s0.4,10.5-4.3,12.8
			C312.06,183.944,309.36,185.844,307.36,188.544z M330.36,251.944l-4.3,4.3c-6.1,5.1-12,1.9-14,0c-3.9-3.9-3.9-9.7,0-13.6l4.3-4.3
			c3.9-3.9,9.7-3.9,13.6,0C334.26,241.844,334.26,248.044,330.36,251.944z M337.36,112.044l6.2-8.9c3.1-4.3,8.9-5.4,13.6-2.3
			c4.3,3.1,5.4,8.9,2.3,13.6l-6.2,8.9c-1.9,2.7-7.4,6.7-13.2,2.3C335.36,122.544,334.26,116.644,337.36,112.044z M341.56,170.344
			l7.4-7.4c3.9-3.9,9.7-3.9,13.6,0s3.9,9.7,0,13.6l-7.4,7.4c-5.9,5-12,1.9-14,0C337.76,180.044,337.76,173.844,341.56,170.344z
			 M371.56,219.644l-8.6,8.6c-6.2,5-12,1.9-14,0c-3.9-3.9-3.9-9.7,0-13.6l8.6-8.6c3.9-3.9,9.7-3.9,13.6,0
			C375.06,209.544,375.06,215.744,371.56,219.644z M403.76,165.644l-5.4,5.4c-5.9,5-12,1.9-14,0c-3.9-3.9-3.9-9.7,0-13.6l5.4-5.4
			c3.9-3.9,9.7-3.9,13.6,0C407.66,155.544,407.66,161.744,403.76,165.644z M410.36,101.944c-2.3,5.4-6.1,10.6-10.9,14
			c-6.1,4.3-11.3,0.4-13.2-1.9c-3.1-4.3-1.9-10.5,2.3-13.6c1.9-1.2,3.5-3.1,4.3-5.4c1.9-5.1,7.8-7.4,12.4-5.4
			C409.96,91.444,412.36,96.844,410.36,101.944z"/>
	</g>
</g>
<g>
</g>
<g>
</g>
<g>
</g>
<g>
</g>
<g>
</g>
<g>
</g>
<g>
</g>
<g>
</g>
<g>
</g>
<g>
</g>
<g>
</g>
<g>
</g>
<g>
</g>
<g>
</g>
<g>
</g>
</svg>
